<svg width="845" height="646" viewBox="0 0 845 646" fill="none" xmlns="http://www.w3.org/2000/svg">
<g opacity="0.5">
<path fill-rule="evenodd" clip-rule="evenodd" d="M762.002 225.296C765.444 220.388 771.833 207.921 776.678 206.167C779.799 205.037 778.889 216.724 778.928 218.952C779.078 227.573 778.239 236.14 777.202 244.689C775.335 260.106 769.229 273.837 760.854 286.959C756.545 293.711 751.49 300.545 744.489 304.758C741.267 306.698 737.389 307.023 734.207 308.694C730.5 310.64 732.519 309.067 730.848 312.93C728.529 318.292 727.787 325.21 726.714 330.931C721.786 357.197 709.855 496.045 711.924 522.762C712.107 525.13 708.805 525.697 708.64 522.806C707.764 507.477 715.346 401.326 719.171 366.612C722.996 331.897 726.867 301.229 730.748 289.219C735.456 274.648 743.96 257.125 751.039 243.538C754.327 237.225 757.911 231.13 762.002 225.296Z" fill="#69A1AC"/>
<path fill-rule="evenodd" clip-rule="evenodd" d="M787.554 395.555C796.512 388.979 806.208 401.391 798.102 407.968C793.621 411.604 788.936 410.311 786.299 407.281C784.587 409.368 782.984 411.55 781.444 413.393C776.753 419.01 772.319 424.76 768.081 430.645C759.278 442.87 751.734 455.786 743.846 468.465C736.062 480.979 728.34 493.557 721.284 506.388C715.307 517.259 707.34 530.048 705.294 541.966C708.399 516.69 720.18 492.396 734.21 470.114C748.126 448.014 764.096 423.879 785.643 406.439C783.45 403.214 783.389 398.611 787.554 395.555Z" fill="#C1DEE2"/>
<path fill-rule="evenodd" clip-rule="evenodd" d="M617.567 333.912C622.58 334.893 630.771 346.233 634.903 350.553C639.814 355.688 644.27 361.16 648.469 366.894C657.51 379.236 665.596 392.359 672.471 406.043C683.68 428.351 692.66 451.251 699.177 475.543C703.166 490.413 705.749 505.825 707.28 521.13C707.569 524.016 710.595 546.269 706.235 546.869C702.313 547.409 703.524 529.972 703.335 527.6C701.196 500.84 694.789 474.803 685.877 449.581C683.936 444.086 682.133 437.357 679.028 432.412C676.793 428.851 679.012 430.093 675.084 428.745C671.71 427.587 667.867 427.87 664.412 426.452C656.908 423.375 650.899 417.4 645.632 411.391C635.395 399.712 627.284 387.077 623.056 372.112C620.71 363.814 618.555 355.468 617.358 346.914C617.049 344.703 614.339 333.281 617.567 333.912Z" fill="#69A1AC"/>
<path fill-rule="evenodd" clip-rule="evenodd" d="M637.35 145.236C656.232 177.984 671.749 213.956 681.769 250.39C687.84 272.465 692.085 295.118 696.303 317.606C702.834 352.427 709.011 387.246 710.769 422.685C712.537 458.33 716.032 499.442 704.361 533.774C710.191 498.918 704.64 461.817 703.657 426.744C703.188 410.001 701.827 393.422 700.041 376.777C698.309 360.63 695.478 344.56 692.843 328.541C691.559 320.739 690.21 312.949 688.837 305.163C688.427 302.84 688.254 295.947 686.781 294.36C685.298 292.763 677.731 292.111 675.355 290.939C670.572 288.579 666.072 285.226 662.089 281.683C654.455 274.891 647.814 266.016 642.572 257.268C630.443 237.027 625.594 212.325 625.839 188.882C625.886 184.331 633.206 135.319 630.266 134.644C630.443 134.437 630.611 134.223 630.769 134C632.994 137.726 635.178 141.478 637.35 145.236Z" fill="#89C5CC"/>
<path fill-rule="evenodd" clip-rule="evenodd" d="M841.156 263.343C841.448 262.922 843.344 260 842.389 260.187C844.333 259.806 839.715 263.41 844.559 261.199C842.259 263.371 843.587 266.193 843.617 269.117C843.667 273.863 842.873 278.571 841.979 283.216C840.567 290.558 838.462 297.697 835.407 304.526C828.75 319.408 817.445 333.735 804.023 343.039C797.398 347.633 790.904 349.197 783.348 351.312C778.575 352.648 778.196 355.117 775.663 359.749C770.388 369.395 765.207 379.008 760.555 388.98C755.001 400.888 749.609 412.809 744.522 424.927C727.387 465.745 713.441 508.033 706.117 551.797C705.938 526.007 711.904 499.445 719.429 474.863C724.911 456.953 732.048 439.689 739.66 422.599C741.504 418.459 744.299 413.133 745.082 408.562C745.631 405.359 743.954 402.279 743.186 398.905C740.193 385.767 740.408 371.049 743.036 357.84C745.934 343.276 754.315 336.516 768.492 334.453C773.677 333.698 780.267 333.975 785.021 331.764C790.201 329.357 792.337 321.443 795.283 316.364C803.194 302.719 812.594 289.633 823.387 278.136C826.375 274.952 829.589 272.015 832.999 269.292C835.149 267.575 839.691 265.459 841.156 263.343Z" fill="#89C5CC"/>
<path fill-rule="evenodd" clip-rule="evenodd" d="M678.286 529.673C677.84 526.654 680.18 523.944 683.232 523.944H731.451C734.503 523.944 736.843 526.654 736.398 529.673L733.117 551.918C731.67 561.73 723.25 569 713.331 569H701.352C691.434 569 683.013 561.73 681.566 551.918L678.286 529.673Z" fill="#C1DEE2"/>
</g>
<path fill-rule="evenodd" clip-rule="evenodd" d="M134 334L183.082 458.227L216.001 563.25H229L178.674 334L134 334Z" fill="#997659"/>
<path fill-rule="evenodd" clip-rule="evenodd" d="M124.117 334C123.594 377.654 115.972 436.427 114.754 439.149C113.536 441.87 30.6758 508.358 30.6758 508.358L39.6291 517.939C39.6291 517.939 137.397 460.934 141.921 453.331C146.445 445.728 161.174 375.763 173 334H124.117Z" fill="#B28B67"/>
<path fill-rule="evenodd" clip-rule="evenodd" d="M32.1161 506.564C31.7885 505.44 30.6042 504.771 29.5044 505.173C27.4982 505.906 24.5643 507.092 23.2643 508.183C21.1922 509.922 17.7962 513.948 17.7962 513.948C19.8132 516.352 54.0506 557.154 54.0506 557.154C54.0506 557.154 61.0316 554.166 58.4308 550.165C55.83 546.164 54.1739 543.464 54.1739 543.464L46.2758 515.87C46.1208 515.328 45.5491 515.022 45.0121 515.192L40.7977 516.529C40.7977 516.529 36.4118 514.485 34.6495 512.384C33.5767 511.106 32.6652 508.448 32.1161 506.564Z" fill="#E4E4E4"/>
<path fill-rule="evenodd" clip-rule="evenodd" d="M213.45 557.284C212.378 556.813 211.104 557.29 210.705 558.391C209.977 560.398 209 563.409 209 565.106C209 567.811 209.901 573 209.901 573C213.039 573 266.303 573 266.303 573C266.303 573 268.502 565.732 263.765 565.152C259.028 564.573 255.895 564.106 255.895 564.106L229.68 552.419C229.165 552.189 228.563 552.43 228.348 552.951L226.663 557.039C226.663 557.039 222.278 559.085 219.537 559.085C217.868 559.085 215.246 558.074 213.45 557.284Z" fill="#E4E4E4"/>
<path fill-rule="evenodd" clip-rule="evenodd" d="M167 552.433L228.804 545.725L183 334H127.644L167 552.433Z" fill="#ABD1C6"/>
<path fill-rule="evenodd" clip-rule="evenodd" d="M43.46 492.9L84 540.886C84 540.886 148.05 470.932 158.683 449.596C169.315 428.26 177.799 334 177.799 334H115.478C115.478 334 110.844 416.926 109.231 420.785C107.617 424.644 43.46 492.9 43.46 492.9Z" fill="#ABD1C6"/>
<path fill-rule="evenodd" clip-rule="evenodd" d="M154.5 134C142.626 134 133 143.626 133 155.5V176.5C133 187.566 141.36 196.679 152.109 197.868C152.111 197.92 152.114 197.971 152.117 198.022H181.117C185.701 193.544 181.209 164.992 177.762 152.29C176.212 141.939 167.283 134 156.5 134H154.5Z" fill="#191847"/>
<path fill-rule="evenodd" clip-rule="evenodd" d="M155.935 182.244C162.411 186.147 168.774 188.033 171.76 187.263C179.25 185.333 179.938 157.935 174.143 147.134C168.349 136.333 138.558 131.625 137.057 153.025C136.536 160.453 139.654 167.081 144.262 172.49L136 211H160L155.935 182.244Z" fill="#B28B67"/>
<path fill-rule="evenodd" clip-rule="evenodd" d="M133.881 153.15C134.578 152.461 135.252 151.795 135.921 151.198L135.889 150.421C135.889 150.421 143.421 135 155.001 135C166.571 135 170.23 140.379 173.34 144.951L173.349 144.963C171.722 150.545 166.819 152.804 161.274 155.358C158.887 156.457 156.381 157.612 153.966 159.11C153.02 158.341 151.814 157.88 150.5 157.88C147.462 157.88 145 160.343 145 163.38C145 166.418 147.462 168.88 150.5 168.88C150.584 168.88 150.667 168.879 150.75 168.875C151.856 180.753 151.413 194.317 148.117 197.537H119.117C118.285 183.073 122.026 178.947 125.85 174.731C129.447 170.764 133.117 166.717 133.117 153.903C133.375 153.651 133.63 153.399 133.881 153.15L133.881 153.15Z" fill="#191847"/>
<path fill-rule="evenodd" clip-rule="evenodd" d="M215.348 224.69L180.638 243.7L193.456 257.458L218.677 234.365C231.963 230.704 238.039 228.025 236.905 226.329C235.948 224.9 234.406 224.949 232.985 224.995C231.878 225.031 230.845 225.064 230.22 224.394C228.794 222.863 231.515 217.51 234.315 212.542C237.114 207.573 234.121 208.005 232.409 208.72C226.807 212.512 221.12 217.836 215.348 224.69ZM250.247 251.364L235 259.74L235.868 275.04C235.868 275.04 245.743 267.913 254.238 265.544C265.071 262.524 269.453 260.218 274.746 253.473C277.578 249.864 279.982 242.61 277.286 240.248C276.252 239.341 272.399 241.482 268.468 243.667C265.472 245.332 262.43 247.022 260.556 247.408C258.034 247.927 258.329 244.657 258.565 242.045C258.734 240.17 258.873 238.633 257.918 239.077C253.455 239.154 250.247 251.364 250.247 251.364Z" fill="#997659"/>
<path fill-rule="evenodd" clip-rule="evenodd" d="M163.734 239.465C175.892 239.337 192.104 236.769 209.402 225.789L216.196 240.939C204.264 252.78 187.486 262.51 172.816 262.098C161.255 261.773 155.347 247.789 163.734 239.465Z" fill="#F85E00"/>
<path fill-rule="evenodd" clip-rule="evenodd" d="M130.945 343.259C119.387 341.752 108.766 340.367 102.473 341.606C95.4113 318.673 101.275 304.234 106.688 290.905C109.95 282.871 113.049 275.241 113.056 266.397C113.075 240.642 133.754 201 136.797 201H137.67H161.783H164.544C165.784 216.937 171.079 234.193 176.407 251.56C177.652 255.615 178.898 259.677 180.095 263.729C200.26 268.307 245.036 252.373 245.036 252.373C245.036 252.373 256.34 275.759 255.487 285.717C229.424 299.331 207.087 305.401 188.683 305.802C189.268 316.721 187.939 327.112 183.474 336.606C177.491 349.327 152.576 346.079 130.945 343.259Z" fill="#F85E00"/>
<path fill-rule="evenodd" clip-rule="evenodd" d="M556.065 295.244C549.589 299.147 543.226 301.033 540.24 300.263C532.75 298.333 532.062 270.935 537.857 260.134C543.651 249.333 573.442 244.625 574.943 266.025C575.464 273.453 572.346 280.081 567.738 285.49L576 324H552L556.065 295.244Z" fill="#915B3C"/>
<path fill-rule="evenodd" clip-rule="evenodd" d="M569.582 290.308C572.594 276.906 581.175 267.771 579.865 261.782C578.554 255.792 572.879 254.332 572.879 254.332C572.879 254.332 569.943 242.457 553.944 244.23C537.945 246.004 528.181 252.648 532.398 267.268C536.274 267.268 540.954 265.866 547.424 268.268C550.504 269.411 551.83 275.358 551.83 275.358H554.754C554.754 275.358 559.011 268.301 563.149 270.171C567.287 272.042 565.03 279.259 565.03 279.259L566.471 290.308H569.582Z" fill="#191847"/>
<path fill-rule="evenodd" clip-rule="evenodd" d="M643 449C651.837 449 659 456.163 659 465V557C659 565.837 651.837 573 643 573H528C519.163 573 512 565.837 512 557V465C512 456.163 519.163 449 528 449H643ZM627 477C629.209 477 631 478.791 631 481V541C631 543.209 629.209 545 627 545H544C541.791 545 540 543.209 540 541V481C540 478.791 541.791 477 544 477H627Z" fill="#C5CFD6"/>
<path fill-rule="evenodd" clip-rule="evenodd" d="M412.841 568C432.557 543.924 445.897 526.075 452.862 514.454C464.787 494.555 474.547 476.848 477.627 470.084C484.972 453.955 460.718 446.403 455.229 453.926C446.921 465.312 429.178 501.143 402 561.417L412.841 568Z" fill="#B28B67"/>
<path fill-rule="evenodd" clip-rule="evenodd" d="M453.242 561L489.935 468.637C497.783 451.8 459.884 440.732 454.117 448.568C441.023 466.357 409.901 536.534 406 541.834L453.242 561Z" fill="#2F3676"/>
<path fill-rule="evenodd" clip-rule="evenodd" d="M550.967 542.477C543.819 532.051 517.821 496.974 503.661 482.461C499.592 478.291 495.621 474.288 491.866 470.557C480.704 459.47 458.476 478.106 469.618 488.205C497.365 513.355 537.849 547.307 541.231 550.334C545.972 554.577 555.459 549.029 550.967 542.477Z" fill="#915B3C"/>
<path fill-rule="evenodd" clip-rule="evenodd" d="M546.336 538.185C547.029 537.241 548.37 537.017 549.266 537.771C550.901 539.146 553.252 541.264 554.101 542.734C555.453 545.076 557.267 550.021 557.267 550.021C554.55 551.59 508.422 578.222 508.422 578.222C508.422 578.222 502.884 573.027 506.696 570.157C510.509 567.286 512.988 565.315 512.988 565.315L529.848 542.087C530.179 541.631 530.821 541.538 531.267 541.882L534.77 544.579C534.77 544.579 539.591 544.159 541.965 542.788C543.41 541.953 545.176 539.767 546.336 538.185Z" fill="#E4E4E4"/>
<path fill-rule="evenodd" clip-rule="evenodd" d="M418.55 563.284C419.622 562.813 420.896 563.29 421.295 564.391C422.023 566.398 423 569.409 423 571.106C423 573.811 422.099 579 422.099 579C418.961 579 365.697 579 365.697 579C365.697 579 363.498 571.732 368.235 571.152C372.972 570.573 376.105 570.106 376.105 570.106L402.32 558.419C402.835 558.189 403.437 558.43 403.652 558.951L405.337 563.039C405.337 563.039 409.722 565.085 412.463 565.085C414.132 565.085 416.754 564.074 418.55 563.284Z" fill="#E4E4E4"/>
<path fill-rule="evenodd" clip-rule="evenodd" d="M503.138 473.25C503.138 473.25 548.883 465.798 564.419 463.058C593.943 457.852 602.552 441.965 597.462 407.302L543.066 407.302C532.268 410.42 452.832 445.872 452.832 445.872C443.304 450.602 445.079 464.547 446.82 469.142C446.927 469.423 495.008 551.713 495.008 551.713L539.506 523.365L503.054 476.59C503.054 476.59 501.61 473.682 503.138 473.25Z" fill="#5C63AB"/>
<path fill-rule="evenodd" clip-rule="evenodd" d="M467.321 417.635L499.219 394.211L506.27 411.642L474.683 424.741C465.749 435.235 460.754 439.61 459.696 437.865C458.805 436.394 459.502 435.017 460.144 433.749C460.644 432.76 461.11 431.838 460.767 430.989C459.982 429.049 453.981 429.254 448.295 429.691C442.608 430.128 444.265 427.598 445.636 426.349C451.441 422.874 458.669 419.97 467.321 417.635ZM634.602 458.908C631.672 452.963 621.692 395.02 621.692 395.02L600.795 395.102C600.795 395.102 620.149 457.583 621.692 461.406C623.696 466.372 620.292 473.587 617.984 478.48C617.627 479.237 617.296 479.938 617.015 480.567C620.218 482 621.757 480.268 623.379 478.442C625.21 476.379 627.149 474.197 631.712 476.319C633.475 477.14 635.143 478.109 636.773 479.057C642.403 482.329 647.575 485.336 654.611 480.994C655.726 480.306 656.949 477.715 653.995 475.69C646.638 470.645 636.035 461.815 634.602 458.908Z" fill="#915B3C"/>
<path fill-rule="evenodd" clip-rule="evenodd" d="M562.305 307.332L553.658 305.849C521.575 333.564 508.397 386.809 469.07 415.015L478.536 426.748C546.76 418.3 563.67 353.355 562.305 307.332Z" fill="#E87613"/>
<path fill-rule="evenodd" clip-rule="evenodd" d="M600 416C600 416 547.992 416 523.489 416C519.992 416 520.651 410.952 521.157 408.404C526.989 379.004 549.759 347.312 549.759 305.461L571.828 302C590.083 331.358 596.395 367.505 600 416Z" fill="#DDE3E9"/>
<path fill-rule="evenodd" clip-rule="evenodd" d="M608.603 437C612.042 445.259 615.414 452.465 618.591 458H635C636.765 400.919 615.155 356.996 597.068 330.513C601.084 330.226 604.709 328.545 607 324.411C615.066 309.856 612.153 301.842 603.533 299.208C598.793 297.76 594.334 298.748 588.998 299.932C584.631 300.9 579.675 301.999 573.496 302C573.494 302 573.492 302 573.49 302C572.891 302 572.346 302.04 571.851 302.117L564.528 302.535C564.528 302.535 534.795 403.305 548.128 437H608.603Z" fill="#FF9B21"/>
<path fill-rule="evenodd" clip-rule="evenodd" d="M608.603 437C604.091 426.164 599.465 413.516 595.013 400.454C593.355 414.839 590.595 429.286 586 437H608.603Z" fill="black" fill-opacity="0.1"/>
<g opacity="0.7" clip-path="url(#clip0_2_325)">
<path fill-rule="evenodd" clip-rule="evenodd" d="M284 159C301.545 159 315.768 150.87 315.768 140.842C315.768 130.814 301.545 122.684 284 122.684C266.455 122.684 252.232 130.814 252.232 140.842C252.232 150.87 266.455 159 284 159Z" fill="#F2F2F2"/>
<path fill-rule="evenodd" clip-rule="evenodd" d="M321 153.351C321 131.066 304.435 113 284 113C263.565 113 247 131.066 247 153.351" fill="#ABD1C6"/>
<rect x="282" width="5" height="136" fill="#ABD1C6"/>
</g>
<path fill-rule="evenodd" clip-rule="evenodd" d="M537 159C554.545 159 568.768 150.87 568.768 140.842C568.768 130.814 554.545 122.684 537 122.684C519.455 122.684 505.232 130.814 505.232 140.842C505.232 150.87 519.455 159 537 159Z" fill="#F2F2F2"/>
<path fill-rule="evenodd" clip-rule="evenodd" d="M574 153.351C574 131.066 557.435 113 537 113C516.565 113 500 131.066 500 153.351" fill="#ABD1C6"/>
<rect x="535" width="5" height="136" fill="#ABD1C6"/>
<defs>
<clipPath id="clip0_2_325">
<rect width="74" height="159" fill="white" transform="translate(247)"/>
</clipPath>
</defs>
</svg>
